HIERARCHY
ROOT Pelvis
{
	OFFSET 0.000000 0.941512 0.000000
	CHANNELS 6 Xposition Yposition Zposition Zrotation Yrotation Xrotation 
	JOINT Pelvis_L_Hip
	{
		OFFSET 0.000000 0.000000 0.000000
		CHANNELS 3 Zrotation Yrotation Xrotation
		JOINT L_Hip
		{
			OFFSET 0.062321 -0.080322 -0.016990
			CHANNELS 3 Zrotation Yrotation Xrotation
			JOINT L_Knee
			{
				OFFSET 0.093051 -0.381305 -0.029784
				CHANNELS 3 Zrotation Yrotation Xrotation
				JOINT L_Ankle
				{
					OFFSET -0.010371 -0.431000 -0.033614
					CHANNELS 3 Zrotation Yrotation Xrotation
					End Site #name: L_Foot
					{
						OFFSET 0.069299 -0.038670 0.119418
					}
				}
			}
		}
	}
	JOINT Pelvis_R_Hip
	{
		OFFSET 0.000000 0.000000 0.000000
		CHANNELS 3 Zrotation Yrotation Xrotation
		JOINT R_Hip
		{
			OFFSET -0.055334 -0.094904 -0.002373
			CHANNELS 3 Zrotation Yrotation Xrotation
			JOINT R_Knee
			{
				OFFSET -0.064207 -0.384370 -0.019592
				CHANNELS 3 Zrotation Yrotation Xrotation
				JOINT R_Ankle
				{
					OFFSET 0.025418 -0.419734 -0.065953
					CHANNELS 3 Zrotation Yrotation Xrotation
					End Site #name: R_Foot
					{
						OFFSET -0.057233 -0.039888 0.132134
					}
				}
			}
		}
	}
	JOINT Pelvis_Spine1
	{
		OFFSET 0.000000 0.000000 0.000000
		CHANNELS 3 Zrotation Yrotation Xrotation
		JOINT Spine1
		{
			OFFSET -0.005562 0.124093 -0.043360
			CHANNELS 3 Zrotation Yrotation Xrotation
			JOINT Spine2
			{
				OFFSET 0.012244 0.139499 0.029894
				CHANNELS 3 Zrotation Yrotation Xrotation
				JOINT Spine3
				{
					OFFSET -0.002556 0.056561 0.009225
					CHANNELS 3 Zrotation Yrotation Xrotation
					JOINT Spine3_Neck
					{
						OFFSET 0.000000 0.000000 0.000000
						CHANNELS 3 Zrotation Yrotation Xrotation
						JOINT Neck
						{
							OFFSET -0.005205 0.217920 -0.024551
							CHANNELS 3 Zrotation Yrotation Xrotation
							End Site #name: Head
							{
								OFFSET 0.002365 0.091850 0.046637
							}
						}
					}
					JOINT Spine3_L_Collar
					{
						OFFSET 0.000000 0.000000 0.000000
						CHANNELS 3 Zrotation Yrotation Xrotation
						JOINT L_Collar
						{
							OFFSET 0.072225 0.116603 -0.009480
							CHANNELS 3 Zrotation Yrotation Xrotation
							JOINT L_Shoulder
							{
								OFFSET 0.115937 -0.058643 -0.021018
								CHANNELS 3 Zrotation Yrotation Xrotation
								JOINT L_Elbow
								{
									OFFSET 0.021994 -0.254722 -0.024492
									CHANNELS 3 Zrotation Yrotation Xrotation
									End Site #name: L_Wrist
									{
										OFFSET 0.048810 -0.240214 0.103329
									}
								}
							}
						}
					}
					JOINT Spine3_R_Collar
					{
						OFFSET 0.000000 0.000000 0.000000
						CHANNELS 3 Zrotation Yrotation Xrotation
						JOINT R_Collar
						{
							OFFSET -0.073372 0.120704 -0.024611
							CHANNELS 3 Zrotation Yrotation Xrotation
							JOINT R_Shoulder
							{
								OFFSET -0.108089 -0.054969 -0.020504
								CHANNELS 3 Zrotation Yrotation Xrotation
								JOINT R_Elbow
								{
									OFFSET -0.033684 -0.260739 0.009889
									CHANNELS 3 Zrotation Yrotation Xrotation
									End Site #name: R_Wrist
									{
										OFFSET -0.067980 -0.232763 0.118463
									}
								}
							}
						}
					}
				}
			}
		}
	}
}
MOTION
Frames: 11
Frame Time: 0.041667
0.000144 0.971589 -0.013350 0.597046 -7.127627 -5.375318 0.000000 0.000000 0.000000 -0.569277 -0.150158 -0.731261 3.709832 0.859469 -17.811335 60.739808 56.838949 118.563776 0.000000 0.000000 0.000000 2.934402 0.934587 -5.578475 -0.515812 -0.912850 -17.427624 -93.962126 -46.770845 130.420306 0.000000 0.000000 0.000000 5.809653 1.930184 -22.202072 0.031751 -0.236834 -5.954003 2.879026 3.300087 43.694465 0.000000 0.000000 0.000000 -9.111119 -0.017751 -80.315845 0.000000 0.000000 0.000000 22.466526 1.971429 5.768681 -25.424487 3.131917 -4.483250 76.645262 -38.771824 120.595461 0.000000 0.000000 0.000000 -33.081796 -4.046293 11.119965 28.868646 0.565697 -4.530534 -83.048297 30.382660 120.898152 
0.000105 0.973231 -0.010723 0.430653 -6.872741 -5.257216 0.000000 0.000000 0.000000 -0.420375 -0.213821 -0.952457 3.647938 0.810806 -17.290424 59.131105 56.993726 116.564781 0.000000 0.000000 0.000000 3.158630 0.899838 -5.393585 -0.815042 -0.917465 -17.399999 -93.382793 -46.933376 130.135332 0.000000 0.000000 0.000000 6.116430 1.981751 -22.568308 0.159170 -0.263075 -6.288021 2.315017 3.339746 44.332957 0.000000 0.000000 0.000000 -8.060547 0.124120 -81.137781 0.000000 0.000000 0.000000 22.643179 2.054773 5.887562 -25.010866 2.983157 -4.868225 49.674469 -22.882377 137.487459 0.000000 0.000000 0.000000 -33.212707 -4.527222 11.519420 29.123414 0.951409 -5.608847 -57.102957 15.880949 136.287963 
-0.000743 0.976886 -0.008167 -0.227974 -6.507649 -5.702909 0.000000 0.000000 0.000000 0.085289 -0.306438 -1.222396 4.571759 0.655345 -14.633776 52.227905 56.903604 112.618301 0.000000 0.000000 0.000000 3.798091 0.735055 -4.534352 -1.021793 -0.906907 -17.036886 -85.379052 -48.141090 126.359273 0.000000 0.000000 0.000000 8.657935 1.630867 -20.530836 -1.430645 -0.223316 -8.877344 1.737383 4.400721 45.238766 0.000000 0.000000 0.000000 -6.619498 0.039176 -83.177052 0.000000 0.000000 0.000000 23.693017 1.638592 6.009235 -25.664516 2.332011 -7.412342 31.020355 -2.180287 135.101445 0.000000 0.000000 0.000000 -30.726702 -5.571264 11.369277 27.671257 1.279332 -6.544289 -37.336899 -4.094784 133.843542 
-0.001044 0.977878 -0.003175 -0.492580 -6.204256 -5.542654 0.000000 0.000000 0.000000 0.337048 -0.306526 -1.172564 4.371980 0.641956 -14.637808 53.317565 56.824153 113.721971 0.000000 0.000000 0.000000 3.876252 0.664100 -4.183299 -0.979505 -0.912340 -17.036832 -84.190818 -47.787592 126.906349 0.000000 0.000000 0.000000 9.232340 1.844599 -21.801500 -0.692906 -0.245176 -7.851615 0.665357 4.755725 44.465903 0.000000 0.000000 0.000000 -6.764684 -0.023638 -81.933276 0.000000 0.000000 0.000000 22.552397 1.621441 5.811750 -24.690232 1.676668 -9.071702 23.114305 6.381635 125.101132 0.000000 0.000000 0.000000 -31.328684 -6.453919 12.198685 27.873538 3.988406 -13.668077 -25.142411 -14.198294 126.428190 
0.000500 0.978559 0.001849 -1.053161 -6.324680 -5.543424 0.000000 0.000000 0.000000 1.163113 -0.207247 -0.584761 3.655181 0.631975 -14.984251 56.121667 56.973048 114.274850 0.000000 0.000000 0.000000 4.448900 0.565367 -3.716080 -1.051566 -0.924194 -17.270330 -83.354264 -47.246890 127.801668 0.000000 0.000000 0.000000 9.781960 2.059331 -22.951631 -0.380366 -0.136806 -4.445137 0.254118 4.439733 41.172956 0.000000 0.000000 0.000000 -6.881823 0.093549 -81.471359 0.000000 0.000000 0.000000 22.273107 2.657207 6.437905 -25.291310 0.803094 -11.547878 16.031148 11.167101 110.460973 0.000000 0.000000 0.000000 -32.028243 -7.600344 13.518441 28.795049 4.487938 -14.172817 -15.456828 -18.742433 108.039179 
-0.000470 0.977988 0.007632 -0.887785 -6.372656 -5.446449 0.000000 0.000000 0.000000 1.038513 -0.149115 -0.369092 3.378124 0.610630 -14.852350 55.885246 56.990734 114.084225 0.000000 0.000000 0.000000 4.380715 0.524200 -3.518752 -1.217592 -0.932352 -17.437472 -84.215869 -46.772452 128.921894 0.000000 0.000000 0.000000 10.757062 2.417128 -24.733931 -2.169331 0.227423 -1.951478 -0.424938 4.463886 38.865909 0.000000 0.000000 0.000000 -3.066092 1.033118 -80.557511 0.000000 0.000000 0.000000 24.892459 5.364647 9.037256 -27.373778 -1.469089 -18.565765 9.268966 12.971091 93.862471 0.000000 0.000000 0.000000 -29.758412 -7.399214 12.708184 27.419778 4.273581 -13.654754 -3.448847 -20.976328 90.008712 
-0.000580 0.981707 0.011591 -1.387097 -6.781049 -4.726234 0.000000 0.000000 0.000000 1.844811 -0.262634 -0.657520 2.794857 0.583479 -14.770271 54.991688 57.152852 112.637343 0.000000 0.000000 0.000000 5.213168 0.660384 -4.235029 -1.774546 -0.919514 -17.294300 -80.486938 -44.709538 132.260910 0.000000 0.000000 0.000000 11.387899 2.999864 -27.496948 -2.965867 0.556263 1.116822 0.003951 4.589828 37.632665 0.000000 0.000000 0.000000 0.171921 1.837282 -81.972915 0.000000 0.000000 0.000000 25.962345 5.202359 9.193988 -29.697313 -2.122926 -20.215022 7.460235 12.326905 83.794332 0.000000 0.000000 0.000000 -30.285090 -9.240749 14.385603 27.361765 6.739090 -20.086738 0.537123 -20.773669 84.467430 
-0.000799 0.985393 0.011404 -1.462974 -5.961508 -5.925840 0.000000 0.000000 0.000000 2.135144 -0.021724 0.448704 2.036245 0.514470 -14.429788 50.330273 57.402477 104.968045 0.000000 0.000000 0.000000 5.181819 0.290324 -2.420006 -2.380685 -0.927750 -17.208541 -82.627561 -43.871656 134.654757 0.000000 0.000000 0.000000 11.003168 2.777812 -26.530213 -1.150406 0.270592 1.571523 0.083976 3.905586 37.502065 0.000000 0.000000 0.000000 -7.892070 -0.320847 -85.436765 0.000000 0.000000 0.000000 21.929650 4.186147 7.440524 -28.323966 -1.501811 -18.462413 3.635310 10.911623 64.304329 0.000000 0.000000 0.000000 -27.125911 -8.385807 12.636827 26.601376 5.656171 -17.485520 1.505052 -16.365178 65.287619 
0.000225 0.981478 0.014315 -1.282483 -6.117461 -7.133111 0.000000 0.000000 0.000000 1.776708 0.373969 2.020882 2.159437 0.541505 -14.837577 48.912712 57.339536 103.764728 0.000000 0.000000 0.000000 4.853270 -0.000916 -0.931858 -2.280116 -0.947828 -17.553298 -81.055078 -44.814524 132.485569 0.000000 0.000000 0.000000 11.166214 2.620283 -25.579288 -2.352174 0.361464 -0.260192 0.949201 4.063308 38.794717 0.000000 0.000000 0.000000 -4.484133 0.534574 -85.576691 0.000000 0.000000 0.000000 21.764886 4.052256 7.337890 -30.126597 -1.584543 -18.899661 4.305283 8.915076 50.675837 0.000000 0.000000 0.000000 -25.647416 -8.683556 12.309676 25.835984 5.891112 -18.658886 4.582496 -13.570013 53.543470 
0.000172 0.979047 0.015653 -1.273264 -6.288429 -8.104013 0.000000 0.000000 0.000000 1.905305 0.584324 2.937634 1.943653 0.515701 -14.548753 48.261944 57.374928 102.482398 0.000000 0.000000 0.000000 4.998609 -0.209304 0.100075 -2.566608 -0.951854 -17.634238 -83.610415 -45.501273 131.445251 0.000000 0.000000 0.000000 10.858828 2.447690 -24.647953 -1.727024 0.263660 -0.226427 1.091242 4.110025 37.750392 0.000000 0.000000 0.000000 -4.846080 0.461867 -85.108870 0.000000 0.000000 0.000000 20.465286 3.710053 6.779163 -27.134213 -3.409254 -24.604879 -0.103636 9.428644 52.248501 0.000000 0.000000 0.000000 -25.919369 -8.519114 12.292930 25.307571 7.209902 -22.517664 5.312424 -12.535820 49.935693 
0.001210 0.976490 0.014783 -0.932031 -6.709184 -9.384090 0.000000 0.000000 0.000000 1.392037 1.238208 5.438868 1.354705 0.664948 -18.065867 60.966638 57.317905 114.074867 0.000000 0.000000 0.000000 4.756707 -0.541231 1.837871 -2.191633 -1.042217 -19.235362 -84.137104 -43.908925 134.459027 0.000000 0.000000 0.000000 11.360190 2.122480 -22.778839 -2.284210 0.246637 -1.908921 0.637018 4.560031 36.662220 0.000000 0.000000 0.000000 -1.955606 1.220383 -81.189056 0.000000 0.000000 0.000000 17.638818 0.743765 4.110888 -21.747003 -3.653252 -26.807894 -0.562591 10.473618 57.261178 0.000000 0.000000 0.000000 -23.021276 -3.547406 7.751640 21.839057 6.853407 -23.522387 5.217365 -13.692128 53.730007 
